<svg width="24" height="24" viewBox="0 0 24 24" fill="none" xmlns="http://www.w3.org/2000/svg">
<path d="M14.2501 5V4C14.2501 3.58579 14.5859 3.25 15.0001 3.25C15.4143 3.25 15.7501 3.58579 15.7501 4V5C15.7501 5.96401 15.7516 6.61169 15.8165 7.09473C15.8786 7.55612 15.986 7.75348 16.1163 7.88379C16.2466 8.0141 16.444 8.12155 16.9054 8.18359C17.2719 8.23287 17.7333 8.24181 18.3556 8.24512L17.5314 7.58594C17.2079 7.32718 17.1554 6.8547 17.4142 6.53125C17.6729 6.2078 18.1454 6.15531 18.4689 6.41406L20.9689 8.41406C21.1468 8.55639 21.2501 8.77216 21.2501 9C21.2501 9.22784 21.1468 9.44361 20.9689 9.58594L18.4689 11.5859C18.1454 11.8447 17.6729 11.7922 17.4142 11.4688C17.1554 11.1453 17.2079 10.6728 17.5314 10.4141L18.3624 9.74902C17.7192 9.74589 17.1657 9.73183 16.7052 9.66992C16.0776 9.58549 15.5111 9.3997 15.0558 8.94434C14.6004 8.48898 14.4146 7.92253 14.3302 7.29492C14.2487 6.6887 14.2501 5.92161 14.2501 5Z" fill="#1C274C"/>
<path d="M10.0376 5.31617L10.6866 6.4791C11.2723 7.52858 11.0372 8.90533 10.1147 9.8278C10.1147 9.8278 8.99578 10.9467 11.0245 12.9755C13.0532 15.0042 14.1722 13.8853 14.1722 13.8853C15.0947 12.9628 16.4714 12.7277 17.5209 13.3134L18.6838 13.9624C20.2686 14.8468 20.4557 17.0692 19.0628 18.4622C18.2258 19.2992 17.2004 19.9505 16.0669 19.9934C14.1588 20.0658 10.9183 19.5829 7.6677 16.3323C4.41713 13.0817 3.93421 9.84122 4.00655 7.93309C4.04952 6.7996 4.7008 5.77423 5.53781 4.93723C6.93076 3.54428 9.15317 3.73144 10.0376 5.31617Z" fill="#1C274C"/>
</svg>
