<svg width="24" height="24" viewBox="0 0 24 24" fill="none" xmlns="http://www.w3.org/2000/svg">
<path d="M14.2502 5V4C14.2502 3.58579 14.5859 3.25 15.0002 3.25C15.4144 3.25 15.7502 3.58579 15.7502 4V5C15.7502 5.96401 15.7516 6.61169 15.8166 7.09473C15.8786 7.55612 15.9861 7.75348 16.1164 7.88379C16.2467 8.0141 16.444 8.12155 16.9054 8.18359C17.2719 8.23287 17.7333 8.24181 18.3556 8.24512L17.5314 7.58594C17.208 7.32718 17.1555 6.8547 17.4142 6.53125C17.673 6.2078 18.1455 6.15531 18.4689 6.41406L20.9689 8.41406C21.1468 8.55639 21.2502 8.77216 21.2502 9C21.2502 9.22784 21.1468 9.44361 20.9689 9.58594L18.4689 11.5859C18.1455 11.8447 17.673 11.7922 17.4142 11.4688C17.1555 11.1453 17.208 10.6728 17.5314 10.4141L18.3625 9.74902C17.7192 9.74589 17.1657 9.73183 16.7052 9.66992C16.0776 9.58549 15.5112 9.3997 15.0558 8.94434C14.6005 8.48898 14.4147 7.92253 14.3302 7.29492C14.2487 6.6887 14.2502 5.92161 14.2502 5Z" fill="#1C274C"/>
<path d="M15.5562 14.5477L15.1007 15.0272C15.1007 15.0272 14.0181 16.167 11.0631 13.0559C8.10812 9.94484 9.1907 8.80507 9.1907 8.80507L9.47752 8.50311C10.1841 7.75924 10.2507 6.56497 9.63424 5.6931L8.37326 3.90961C7.61028 2.8305 6.13596 2.68795 5.26145 3.60864L3.69185 5.26114C3.25823 5.71766 2.96765 6.30945 3.00289 6.96594C3.09304 8.64546 3.81071 12.259 7.81536 16.4752C12.0621 20.9462 16.0468 21.1239 17.6763 20.9631C18.1917 20.9122 18.6399 20.6343 19.0011 20.254L20.4217 18.7584C21.3806 17.7489 21.1102 16.0182 19.8833 15.312L17.9728 14.2123C17.1672 13.7486 16.1858 13.8848 15.5562 14.5477Z" fill="#1C274C"/>
</svg>
