<svg width="24" height="24" viewBox="0 0 24 24" fill="none" xmlns="http://www.w3.org/2000/svg">
<path d="M19.75 8C19.75 8.41421 19.4142 8.75 19 8.75C18.5858 8.75 18.25 8.41421 18.25 8V6.81055L15.5303 9.53027C15.2374 9.82317 14.7626 9.82317 14.4697 9.53027C14.1768 9.23738 14.1768 8.76262 14.4697 8.46973L17.1895 5.75H16C15.5858 5.75 15.25 5.41421 15.25 5C15.25 4.58579 15.5858 4.25 16 4.25H19C19.4142 4.25 19.75 4.58579 19.75 5V8Z" fill="#1C274C"/>
<path d="M10.0376 5.31617L10.6866 6.4791C11.2723 7.52858 11.0372 8.90533 10.1147 9.8278C10.1147 9.8278 8.99578 10.9467 11.0245 12.9755C13.0532 15.0042 14.1722 13.8853 14.1722 13.8853C15.0947 12.9628 16.4714 12.7277 17.5209 13.3134L18.6838 13.9624C20.2686 14.8468 20.4557 17.0692 19.0628 18.4622C18.2258 19.2992 17.2004 19.9505 16.0669 19.9934C14.1588 20.0658 10.9183 19.5829 7.6677 16.3323C4.41713 13.0817 3.93421 9.84122 4.00655 7.93309C4.04952 6.7996 4.7008 5.77423 5.53781 4.93723C6.93076 3.54428 9.15317 3.73144 10.0376 5.31617Z" fill="#1C274C"/>
</svg>
