<svg width="24" height="24" viewBox="0 0 24 24" fill="none" xmlns="http://www.w3.org/2000/svg">
<path fill-rule="evenodd" clip-rule="evenodd" d="M1.6061 6.08111C2.11373 5.86356 2.7016 6.09871 2.91916 6.60634L2.00001 7.00026C2.91916 6.60634 2.9193 6.60666 2.91916 6.60634L2.91864 6.60514C2.91857 6.60496 2.91836 6.60449 2.91864 6.60514L2.92256 6.614C2.92657 6.62302 2.93345 6.63833 2.94325 6.65954C2.96284 6.70196 2.99403 6.76784 3.03702 6.85382C3.12308 7.02595 3.256 7.27771 3.43743 7.58252C3.80143 8.19404 4.35445 9.0085 5.10781 9.81981C5.28538 10.011 5.4733 10.2013 5.67179 10.3883C5.68009 10.3958 5.68829 10.4036 5.6964 10.4114C7.18108 11.8017 9.25233 13.0003 12 13.0003C13.209 13.0003 14.2784 12.7694 15.2209 12.3984C16.447 11.9159 17.4746 11.1894 18.3156 10.4C19.2653 9.50864 19.9628 8.55029 20.4233 7.81125C20.6526 7.44317 20.8207 7.13343 20.9299 6.91934C20.9845 6.81241 21.0241 6.72968 21.0492 6.67586C21.0617 6.64897 21.0706 6.62932 21.0759 6.61753L21.0809 6.60634C21.2986 6.09898 21.8864 5.86361 22.3939 6.08111C22.9016 6.29867 23.1367 6.88655 22.9192 7.39418L22 7.00026C22.9192 7.39418 22.9193 7.39395 22.9192 7.39418L22.917 7.3992L22.9134 7.40742L22.902 7.43326C22.8925 7.45459 22.8791 7.48403 22.8619 7.52097C22.8274 7.59482 22.7775 7.6988 22.7116 7.82799C22.5799 8.08615 22.384 8.44633 22.1207 8.86893C21.7181 9.51508 21.1521 10.3165 20.4097 11.1245L21.2071 11.922C21.5976 12.3125 21.5976 12.9457 21.2071 13.3362C20.8166 13.7267 20.1834 13.7267 19.7929 13.3362L18.9527 12.496C18.3885 12.9518 17.757 13.3816 17.0558 13.7525L17.8382 14.9549C18.1394 15.4178 18.0083 16.0372 17.5454 16.3384C17.0825 16.6397 16.463 16.5086 16.1618 16.0456L15.1764 14.5311C14.4974 14.7393 13.772 14.8868 13 14.9559V16.5003C13 17.0525 12.5523 17.5003 12 17.5003C11.4477 17.5003 11 17.0525 11 16.5003V14.9561C10.2254 14.8869 9.5002 14.7391 8.8234 14.5315L7.8382 16.0456C7.53699 16.5086 6.91755 16.6397 6.45463 16.3384C5.99171 16.0372 5.86062 15.4178 6.16183 14.9549L6.94423 13.7524C6.24411 13.3819 5.61252 12.952 5.04752 12.4958L4.20712 13.3362C3.8166 13.7267 3.18343 13.7267 2.79291 13.3362C2.40238 12.9457 2.40238 12.3125 2.79291 11.922L3.59035 11.1245C2.74536 10.2048 2.12778 9.29249 1.71885 8.60549C1.50966 8.25405 1.35351 7.95894 1.24817 7.74825C1.19546 7.64283 1.15535 7.55832 1.12758 7.4982C1.11369 7.46814 1.10288 7.44415 1.09511 7.42667L1.08572 7.40539L1.08273 7.3985L1.08166 7.39602L1.08123 7.39502C1.08104 7.39458 1.08087 7.39418 2.00001 7.00026L1.08123 7.39502C0.863674 6.88739 1.09847 6.29867 1.6061 6.08111Z" fill="#1C274C"/>
</svg>
