<svg width="24" height="24" viewBox="0 0 24 24" fill="none" xmlns="http://www.w3.org/2000/svg">
<path fill-rule="evenodd" clip-rule="evenodd" d="M3.28441 11.2661C3.15113 9.26687 3.08449 8.26726 3.67729 7.63363C4.27009 7 5.27191 7 7.27555 7H12.7245C14.7281 7 15.7299 7 16.3227 7.63363C16.4852 7.80726 16.5981 8.00837 16.6737 8.25H17C19.5261 8.25 21.75 10.0619 21.75 12.5C21.75 14.9381 19.5261 16.75 17 16.75H16.3499C16.3383 16.9226 16.3269 17.0891 16.3155 17.25H3.68451C3.66551 16.9826 3.64663 16.6993 3.62662 16.3991L3.28441 11.2661ZM16.45 15.25H17C18.8921 15.25 20.25 13.9278 20.25 12.5C20.25 11.0722 18.8921 9.75 17 9.75H16.8007C16.788 10.1801 16.7547 10.6802 16.7156 11.2661L16.45 15.25Z" fill="#1C274C"/>
<path d="M3.81902 18.75H16.181C16.0372 19.9266 15.8026 20.6671 15.2429 21.1907C14.3779 22 13.0475 22 10.3867 22H9.61333C6.95253 22 5.62212 22 4.75712 21.1907C4.19745 20.6671 3.96285 19.9266 3.81902 18.75Z" fill="#1C274C"/>
<path fill-rule="evenodd" clip-rule="evenodd" d="M6.97736 1.32673C7.31457 1.56726 7.39295 2.03562 7.15242 2.37284L6.76635 2.91409C7.39217 3.38836 7.53088 4.27761 7.07189 4.92108L6.66127 5.49675C6.42074 5.83396 5.95238 5.91234 5.61516 5.67181C5.27794 5.43127 5.19957 4.96291 5.4401 4.62569L5.82617 4.08444C5.20035 3.61018 5.06164 2.72092 5.52062 2.07745L5.93124 1.50179C6.17178 1.16457 6.64014 1.08619 6.97736 1.32673ZM10.9774 1.32673C11.3146 1.56726 11.393 2.03562 11.1524 2.37284L10.7663 2.91409C11.3922 3.38836 11.5309 4.27761 11.0719 4.92108L10.6613 5.49675C10.4207 5.83396 9.95238 5.91234 9.61516 5.67181C9.27794 5.43127 9.19957 4.96291 9.4401 4.62569L9.82617 4.08444C9.20035 3.61018 9.06164 2.72092 9.52062 2.07745L9.93124 1.50179C10.1718 1.16457 10.6401 1.08619 10.9774 1.32673ZM14.9774 1.32673C15.3146 1.56726 15.393 2.03562 15.1524 2.37284L14.7663 2.91409C15.3922 3.38836 15.5309 4.27761 15.0719 4.92108L14.6613 5.49675C14.4207 5.83396 13.9524 5.91234 13.6152 5.67181C13.2779 5.43127 13.1996 4.96291 13.4401 4.62569L13.8262 4.08444C13.2003 3.61018 13.0616 2.72092 13.5206 2.07745L13.9312 1.50179C14.1718 1.16457 14.6401 1.08619 14.9774 1.32673Z" fill="#1C274C"/>
</svg>
