<svg width="24" height="24" viewBox="0 0 24 24" fill="none" xmlns="http://www.w3.org/2000/svg">
<path fill-rule="evenodd" clip-rule="evenodd" d="M6.25 7.0392V6.75C6.25 4.94099 6.79645 3.47534 7.85181 2.46548C8.90153 1.46101 10.3582 1 12 1C13.6418 1 15.0985 1.46101 16.1482 2.46548C17.2036 3.47534 17.75 4.94099 17.75 6.75V7.0392C19.634 7.73746 21 9.62329 21 11.8492C21 15.6875 18.0316 17.9016 15.5044 19.7868C15.2417 19.9827 14.9838 20.1751 14.7344 20.3654C13.8 21.0785 12.9 21.75 12 21.75C11.1 21.75 10.2 21.0785 9.26556 20.3654C9.01624 20.1751 8.75832 19.9827 8.49565 19.7868C5.96837 17.9016 3 15.6875 3 11.8492C3 9.62329 4.36604 7.73746 6.25 7.0392ZM7.75 6.75C7.75 5.2453 8.19732 4.21095 8.88885 3.54924C9.58601 2.88213 10.6294 2.5 12 2.5C13.3706 2.5 14.414 2.88213 15.1112 3.54924C15.8027 4.21095 16.25 5.2453 16.25 6.75V6.75134C14.8849 6.71863 13.3895 7.28302 12 8.68062C10.6105 7.28302 9.11513 6.71863 7.75 6.75134V6.75ZM12 11C12.4142 11 12.75 11.3358 12.75 11.75V14.25C12.75 14.6642 12.4142 15 12 15C11.5858 15 11.25 14.6642 11.25 14.25V11.75C11.25 11.3358 11.5858 11 12 11Z" fill="#1C274C"/>
</svg>
