<svg width="24" height="24" viewBox="0 0 24 24" fill="none" xmlns="http://www.w3.org/2000/svg">
<path d="M9.8545 4.15839C12.5752 1.6147 16.9668 1.6147 19.6875 4.15839C22.437 6.72899 22.437 10.9189 19.6875 13.4894L17.4854 15.548C17.1829 15.8306 16.7086 15.8151 16.4258 15.5129C16.143 15.2104 16.1586 14.7352 16.4609 14.4523L18.6631 12.3937C20.7785 10.416 20.7785 7.23184 18.6631 5.2541C16.5189 3.24946 13.0231 3.24946 10.8789 5.2541L10.5127 5.59687C10.2101 5.87976 9.73504 5.86331 9.45215 5.56074C9.16958 5.25825 9.18509 4.78401 9.48731 4.50117L9.8545 4.15839Z" fill="#1C274C"/>
<path d="M5.12012 9.46503C5.41547 9.17483 5.89031 9.17954 6.18067 9.4748C6.47087 9.77015 6.46714 10.245 6.17188 10.5353L5.26661 11.425C3.20937 13.4482 3.2527 16.7001 5.35059 18.7062C7.48751 20.7496 10.9885 20.7702 13.1162 18.7355L13.4815 18.3859C13.7808 18.0997 14.2557 18.1102 14.542 18.4094C14.8282 18.7087 14.8177 19.1836 14.5186 19.4699L14.1533 19.8195C11.4365 22.4175 7.02107 22.3794 4.31348 19.7902C1.61499 17.2096 1.54341 12.983 4.21485 10.3557L5.12012 9.46503Z" fill="#1C274C"/>
<path d="M6.80706 5.49231L5.89439 3.28699C5.736 2.90425 5.91786 2.46558 6.3006 2.30719C6.68333 2.14881 7.122 2.33067 7.28039 2.7134L8.19306 4.91872C8.35135 5.30142 8.16953 5.74014 7.78685 5.89852C7.40416 6.05689 6.96549 5.87496 6.80706 5.49231Z" fill="#1C274C"/>
<path d="M8.72159 9.46903L3.17342 6.76091C2.8012 6.57923 2.64675 6.13016 2.82841 5.75793C3.0101 5.38569 3.45915 5.23123 3.83139 5.41292L9.37956 8.12104C9.75149 8.30287 9.9062 8.75192 9.72457 9.12402C9.54294 9.49608 9.09373 9.65039 8.72159 9.46903Z" fill="#1C274C"/>
</svg>
