<svg width="24" height="24" viewBox="0 0 24 24" fill="none" xmlns="http://www.w3.org/2000/svg">
<path d="M7.4995 17.9997C8.32784 17.9997 8.99937 18.6714 8.9995 19.4997C8.9995 20.328 8.32868 20.9995 7.50047 20.9997C6.67205 20.9997 5.9995 20.3281 5.9995 19.4997C5.99963 18.6716 6.67138 18 7.4995 17.9997ZM16.4995 17.9997C17.3278 17.9997 18.0003 18.6714 18.0005 19.4997C18.0005 20.328 17.3287 20.9995 16.5005 20.9997C15.672 20.9997 15.0005 20.3281 15.0005 19.4997C15.0006 18.6716 15.6714 18 16.4995 17.9997ZM2.08446 2.7507C2.22204 2.36027 2.64992 2.15537 3.04051 2.29269L3.34227 2.39816C3.95866 2.61484 4.48201 2.79951 4.89403 3.00167C5.33463 3.21787 5.7124 3.48427 5.99657 3.90011C6.27846 4.31269 6.39499 4.76515 6.44872 5.26144C6.47276 5.48357 6.48597 5.72948 6.49266 5.99972H17.1304C18.815 5.99972 20.3317 6.00006 20.7759 6.57687C21.2198 7.15392 21.0468 8.02358 20.6997 9.76242L20.1997 12.1872C19.8846 13.7161 19.727 14.4808 19.1753 14.9304C18.6236 15.38 17.8427 15.3796 16.2817 15.3796H10.979C8.19029 15.3796 6.79557 15.3802 5.92918 14.4665C5.06282 13.5527 4.9995 12.5816 4.9995 9.64035V7.03781C4.9995 6.29813 4.99865 5.8027 4.95751 5.42257C4.91817 5.05946 4.84852 4.87786 4.75829 4.74581C4.67023 4.61702 4.53598 4.49707 4.2329 4.34835C3.91009 4.18999 3.47158 4.03417 2.80418 3.79953L2.54247 3.70773C2.15192 3.57022 1.94711 3.14135 2.08446 2.7507ZM10.2397 8.87472C10.1705 8.46633 9.78289 8.19128 9.3745 8.26046C8.96622 8.32974 8.69107 8.71737 8.76024 9.1257L9.28856 12.2429C9.35775 12.6513 9.7454 12.9263 10.1538 12.8571C10.5619 12.7878 10.837 12.401 10.7681 11.9929L10.2397 8.87472ZM15.6538 8.26046C15.2454 8.19128 14.8577 8.46633 14.7886 8.87472L14.2602 11.9929C14.1913 12.401 14.4664 12.7878 14.8745 12.8571C15.2829 12.9263 15.6705 12.6513 15.7397 12.2429L16.2681 9.1257C16.3372 8.71737 16.0621 8.32974 15.6538 8.26046Z" fill="#1C274C"/>
</svg>
