<svg width="24" height="24" viewBox="0 0 24 24" fill="none" xmlns="http://www.w3.org/2000/svg">
<path d="M10.277 16.5148C10.2817 16.405 10.4637 16.3613 10.5176 16.4571C10.771 16.9068 11.2031 17.5682 11.6935 17.8689C12.1838 18.1696 12.9692 18.2549 13.4849 18.2768C13.5948 18.2815 13.6384 18.4634 13.5426 18.5174C13.0929 18.7707 12.4315 19.2029 12.1308 19.6932C11.8301 20.1836 11.7448 20.969 11.7229 21.4847C11.7182 21.5945 11.5363 21.6381 11.4823 21.5423C11.229 21.0926 10.7968 20.4313 10.3065 20.1306C9.81613 19.8299 9.03072 19.7446 8.51505 19.7227C8.4052 19.718 8.36157 19.536 8.45737 19.4821C8.90707 19.2287 9.56842 18.7966 9.86913 18.3062C10.1698 17.8159 10.2552 17.0305 10.277 16.5148Z" fill="#1C274C"/>
<path d="M18.4922 15.5147C18.4837 15.4051 18.2919 15.3591 18.2346 15.453C18.0623 15.7355 17.8138 16.0764 17.5377 16.2458C17.2615 16.4152 16.8449 16.482 16.515 16.5075C16.4054 16.516 16.3594 16.7078 16.4533 16.7651C16.7358 16.9374 17.0767 17.1858 17.2461 17.462C17.4155 17.7382 17.4823 18.1548 17.5078 18.4847C17.5163 18.5943 17.7081 18.6403 17.7654 18.5464C17.9377 18.2639 18.1862 17.923 18.4623 17.7536C18.7385 17.5842 19.1551 17.5174 19.485 17.4919C19.5946 17.4834 19.6406 17.2916 19.5467 17.2343C19.2642 17.062 18.9233 16.8135 18.7539 16.5374C18.5845 16.2612 18.5177 15.8446 18.4922 15.5147Z" fill="#1C274C"/>
<path d="M14.7037 4.00181L14.4614 3.69574C13.5248 2.51266 13.0564 1.92112 12.5116 2.00845C11.9668 2.09577 11.7062 2.80412 11.1852 4.22083L11.0504 4.58735C10.9023 4.98993 10.8283 5.19122 10.6863 5.33897C10.5443 5.48671 10.3505 5.56417 9.96272 5.71911L9.60972 5.86016L9.36186 5.95933C8.16235 6.4406 7.55792 6.71331 7.48075 7.24324C7.39843 7.80849 7.97053 8.29205 9.11474 9.25915L9.41076 9.50935C9.73591 9.78417 9.89848 9.92158 9.99167 10.1089C10.0849 10.2962 10.0981 10.5121 10.1247 10.9441L10.1488 11.3373C10.2422 12.8574 10.2889 13.6174 10.7829 13.8794C11.2768 14.1414 11.8909 13.7319 13.1191 12.9129L13.1191 12.9129L13.4369 12.701C13.7859 12.4683 13.9604 12.3519 14.16 12.32C14.3596 12.288 14.5616 12.344 14.9658 12.456L15.3337 12.558C16.7559 12.9522 17.4669 13.1493 17.8545 12.746C18.2421 12.3427 18.0496 11.6061 17.6644 10.1328L17.5648 9.75163C17.4554 9.33297 17.4006 9.12364 17.4308 8.91657C17.4609 8.70951 17.5726 8.52816 17.7958 8.16546L17.7958 8.16544L17.999 7.83522C18.7846 6.55883 19.1774 5.92063 18.923 5.40935C18.6685 4.89806 17.9354 4.85229 16.4692 4.76076L16.0899 4.73708C15.6732 4.71107 15.4649 4.69807 15.2839 4.60208C15.103 4.5061 14.9699 4.338 14.7037 4.00181L14.7037 4.00181Z" fill="#1C274C"/>
<path d="M8.835 13.326C6.69772 14.3702 4.91931 16.024 4.24844 18.0002C3.49589 13.2926 4.53976 10.2526 6.21308 8.36328C6.35728 8.658 6.54466 8.902 6.71297 9.09269C7.06286 9.48911 7.56518 9.91347 8.07523 10.3444L8.44225 10.6545C8.51184 10.7134 8.56597 10.7592 8.61197 10.7989C8.61665 10.8632 8.62129 10.9383 8.62727 11.0357L8.65708 11.5212C8.69717 12.1761 8.7363 12.8155 8.835 13.326Z" fill="#1C274C"/>
</svg>
