<svg width="24" height="24" viewBox="0 0 24 24" fill="none" xmlns="http://www.w3.org/2000/svg">
<path d="M12.0789 2.25C7.28537 2.25 3.34474 5.913 2.96052 10.5833H1.99999C1.69611 10.5833 1.42226 10.7667 1.30652 11.0477C1.19078 11.3287 1.25603 11.6517 1.47175 11.8657L3.15156 13.5324C3.44397 13.8225 3.91564 13.8225 4.20805 13.5324L5.88786 11.8657C6.10358 11.6517 6.16883 11.3287 6.05309 11.0477C5.93735 10.7667 5.6635 10.5833 5.35961 10.5833H4.46677C4.84649 6.75167 8.10476 3.75 12.0789 3.75C14.8484 3.75 17.2727 5.20845 18.6156 7.39279C18.8325 7.74565 19.2944 7.85585 19.6473 7.63892C20.0001 7.42199 20.1103 6.96007 19.8934 6.60721C18.287 3.99427 15.3873 2.25 12.0789 2.25Z" fill="#1C274C"/>
<path d="M20.8411 10.4666C20.5489 10.1778 20.0788 10.1778 19.7867 10.4666L18.1004 12.1333C17.8841 12.3471 17.8183 12.6703 17.9339 12.9517C18.0495 13.233 18.3235 13.4167 18.6277 13.4167H19.5268C19.1455 17.2462 15.8759 20.25 11.8827 20.25C9.10023 20.25 6.66583 18.7903 5.31793 16.6061C5.10039 16.2536 4.6383 16.1442 4.2858 16.3618C3.93331 16.5793 3.8239 17.0414 4.04143 17.3939C5.65404 20.007 8.56403 21.75 11.8827 21.75C16.6906 21.75 20.6474 18.0892 21.0331 13.4167H22.0001C22.3043 13.4167 22.5783 13.233 22.6939 12.9517C22.8094 12.6703 22.7437 12.3471 22.5273 12.1333L20.8411 10.4666Z" fill="#1C274C"/>
</svg>
