<svg width="24" height="24" viewBox="0 0 24 24" fill="none" xmlns="http://www.w3.org/2000/svg">
<path d="M6.01384 8.6655C5.94329 8.17919 5.79249 7.60031 5.61207 6.90773L5.07131 4.83172L5.06178 4.79513C5.77201 4.11058 6.58322 3.5303 7.47082 3.07888L9.10306 4.31685C9.66261 4.74127 10.133 5.0981 10.5496 5.34436C10.7676 5.4733 10.9873 5.58222 11.2163 5.66013V8.68205C11.0932 8.7394 10.9752 8.81148 10.8649 8.89814L8.93263 10.4166C8.86054 10.4733 8.79367 10.5346 8.73219 10.6L6.05403 9.44032C6.07023 9.18713 6.05226 8.93042 6.01384 8.6655Z" fill="#1C274C"/>
<path d="M4.04504 10.2027C3.75005 10.4568 3.33472 10.7403 2.71023 11.1644L2.00629 11.6426C2.07778 9.60523 2.75802 7.72294 3.87048 6.17241L4.15013 7.24601C4.3436 7.98876 4.47221 8.48678 4.52937 8.88083C4.58388 9.25662 4.56057 9.46319 4.49923 9.62945C4.43839 9.79436 4.32467 9.96174 4.04504 10.2027Z" fill="#1C274C"/>
<path d="M5.30105 16.8851C5.99563 16.8851 6.58118 16.8851 7.05953 16.9413C7.31181 16.9709 7.55277 17.0178 7.78257 17.0953L9.19826 15.2429C9.14668 15.1429 9.10378 15.0373 9.07061 14.9268L8.31165 12.4004C8.27405 12.2752 8.25023 12.1482 8.23956 12.0213L5.51299 10.8406C5.37069 11.0193 5.20596 11.1824 5.02413 11.3391C4.65609 11.6562 4.16833 11.9874 3.58783 12.3817L2.09639 13.3946C2.271 14.6474 2.67745 15.8259 3.27094 16.8851L5.30105 16.8851Z" fill="#1C274C"/>
<path d="M11.7918 10.0775C11.8458 10.0351 11.9069 10.0158 11.9663 10.0158C12.0258 10.0158 12.0868 10.0351 12.1409 10.0775L14.0732 11.596C14.1247 11.6365 14.164 11.6939 14.1844 11.762C14.2042 11.828 14.2051 11.8999 14.1844 11.9688L13.4255 14.4953C13.4046 14.5648 13.3653 14.62 13.3177 14.6585C13.2651 14.701 13.2032 14.723 13.1397 14.723H10.793C10.7294 14.723 10.6675 14.701 10.615 14.6585C10.5673 14.62 10.5281 14.5648 10.5072 14.4953L9.74823 11.9688C9.72753 11.8999 9.7284 11.828 9.74822 11.762C9.7687 11.6939 9.80793 11.6365 9.85946 11.596L11.7918 10.0775Z" fill="#1C274C"/>
<path d="M13.3758 5.37566C13.7974 5.13868 14.2753 4.79236 14.8436 4.38051L16.5843 3.11906C17.4491 3.56852 18.2399 4.14086 18.9336 4.81298L18.388 6.90784C18.2076 7.60042 18.0568 8.17929 17.9862 8.6656C17.948 8.9291 17.93 9.18448 17.9458 9.43635L15.2035 10.6032C15.1412 10.5366 15.0733 10.4742 15 10.4166L13.0677 8.89814C12.9574 8.81148 12.8395 8.7394 12.7163 8.68205V5.67216C12.942 5.59958 13.1594 5.49725 13.3758 5.37566Z" fill="#1C274C"/>
<path d="M11.313 4.05316C10.9798 3.85615 10.5781 3.55293 9.97557 3.09597L9.09303 2.42661C10.0095 2.14916 10.9816 2 11.9885 2C13.0211 2 14.017 2.15686 14.9539 2.44808L13.9979 3.14087C13.386 3.58435 12.978 3.87852 12.6408 4.06803C12.3204 4.24814 12.1338 4.29193 11.9747 4.29016C11.8155 4.2884 11.6297 4.24043 11.313 4.05316Z" fill="#1C274C"/>
<path d="M18.9759 11.3392C19.344 11.6563 19.8317 11.9875 20.4122 12.3818L21.8825 13.3804C21.709 14.6385 21.3018 15.8219 20.706 16.8851L18.8478 16.8851C18.1533 16.8851 17.5677 16.8851 17.0894 16.9413C16.8266 16.9721 16.5761 17.0217 16.3377 17.1052L14.748 15.2159C14.7936 15.124 14.8318 15.0274 14.862 14.9268L15.621 12.4004C15.6582 12.2765 15.6819 12.1507 15.6928 12.0251L18.4844 10.8373C18.6273 11.0174 18.7929 11.1815 18.9759 11.3392Z" fill="#1C274C"/>
<path d="M14.8084 18.6265C14.6066 19.0727 14.4223 19.6414 14.202 20.3213L13.7058 21.8528C13.1478 21.9496 12.574 22 11.9885 22C11.4662 22 10.9534 21.9599 10.4528 21.8825L9.94685 20.3213C9.72656 19.6414 9.54228 19.0727 9.3405 18.6265C9.23747 18.3987 9.12288 18.1861 8.98493 17.9923L10.3752 16.1731C10.5098 16.2058 10.6498 16.223 10.793 16.223H13.1397C13.2934 16.223 13.4433 16.2031 13.5869 16.1657L15.1457 18.0183C15.0158 18.205 14.9068 18.4088 14.8084 18.6265Z" fill="#1C274C"/>
<path d="M8.5327 20.8232C8.29625 20.0935 8.13692 19.6053 7.97377 19.2446C7.818 18.9001 7.68968 18.7453 7.55539 18.6457C7.42286 18.5475 7.24468 18.4733 6.88457 18.431C6.50398 18.3863 6.00705 18.3851 5.25813 18.3851H4.30092C5.45887 19.781 6.9889 20.8563 8.73866 21.4588L8.5327 20.8232Z" fill="#1C274C"/>
<path d="M17.2643 18.431C17.6449 18.3863 18.1418 18.3851 18.8908 18.3851H19.676C18.5612 19.729 17.1014 20.7759 15.4326 21.3896L15.6162 20.8232C15.8526 20.0935 16.012 19.6053 16.1751 19.2446C16.3309 18.9001 16.4592 18.7453 16.5935 18.6457C16.726 18.5475 16.9042 18.4733 17.2643 18.431Z" fill="#1C274C"/>
<path d="M19.4707 8.88093C19.5278 8.48688 19.6565 7.98886 19.8499 7.24611L20.1234 6.1961C21.223 7.73804 21.896 9.60576 21.9701 11.6266L21.2898 11.1645C20.6653 10.7404 20.25 10.4569 19.955 10.2028C19.6754 9.96184 19.5617 9.79446 19.5008 9.62955C19.4395 9.46329 19.4162 9.25672 19.4707 8.88093Z" fill="#1C274C"/>
</svg>
