<svg width="24" height="24" viewBox="0 0 24 24" fill="none" xmlns="http://www.w3.org/2000/svg">
<path fill-rule="evenodd" clip-rule="evenodd" d="M1.58399 6.37604C1.92864 6.14628 2.39429 6.23941 2.62406 6.58405L3.43659 7.80286C4.03935 8.707 5.05411 9.25008 6.14075 9.25008H17.8593C18.9459 9.25008 19.9607 8.707 20.5634 7.80285L21.376 6.58405C21.6057 6.23941 22.0714 6.14628 22.416 6.37604C22.7607 6.60581 22.8538 7.07146 22.6241 7.4161L21.8115 8.6349C20.9306 9.95635 19.4475 10.7501 17.8593 10.7501H6.14075C4.55257 10.7501 3.06948 9.95635 2.18852 8.63491L1.37598 7.4161C1.14622 7.07146 1.23935 6.60581 1.58399 6.37604Z" fill="#1C274C"/>
<path d="M9.00002 15.0001C9.00002 16.1046 8.10459 17.0001 7.00002 17.0001C5.89545 17.0001 5.00002 16.1046 5.00002 15.0001C5.00002 13.8955 5.89545 13.0001 7.00002 13.0001C8.10459 13.0001 9.00002 13.8955 9.00002 15.0001Z" fill="#1C274C"/>
<path d="M19 15.0001C19 16.1046 18.1046 17.0001 17 17.0001C15.8954 17.0001 15 16.1046 15 15.0001C15 13.8955 15.8954 13.0001 17 13.0001C18.1046 13.0001 19 13.8955 19 15.0001Z" fill="#1C274C"/>
</svg>
