<svg width="24" height="24" viewBox="0 0 24 24" fill="none" xmlns="http://www.w3.org/2000/svg">
<path fill-rule="evenodd" clip-rule="evenodd" d="M4.56985 17.8657C5.2567 16.7919 6.72731 16.8271 7.45752 17.7618C8.44752 19.0291 9.82947 20.25 12 20.25C14.2086 20.25 15.5697 19.2712 16.505 18.0209C17.2249 17.0585 18.7907 16.9013 19.5456 18.0435C20.1706 18.9891 20.8486 19.7306 22.172 20.0424C22.5752 20.1374 22.825 20.5412 22.73 20.9444C22.635 21.3476 22.2311 21.5974 21.828 21.5024C19.976 21.066 19.0204 19.9692 18.2942 18.8705C18.2373 18.7844 18.1517 18.7406 18.0407 18.7427C17.9221 18.7449 17.7934 18.8027 17.7061 18.9195C16.5384 20.4804 14.7602 21.75 12 21.75C9.15741 21.75 7.38858 20.1101 6.27547 18.6853C6.20374 18.5934 6.11014 18.5585 6.02963 18.5602C5.9537 18.5619 5.88424 18.5946 5.83347 18.674C5.09398 19.8301 4.1391 21.0389 2.172 21.5024C1.76883 21.5974 1.36498 21.3476 1.26998 20.9444C1.17498 20.5412 1.4248 20.1374 1.82797 20.0424C3.22892 19.7123 3.90756 18.9011 4.56985 17.8657Z" fill="#1C274C"/>
<path d="M22.172 15.0424C20.8486 14.7306 20.1706 13.9891 19.5456 13.0435C18.8452 11.9837 17.4467 12.0426 16.6734 12.8253L15.5 11.5L9.00073 4.13417C8.45843 3.51957 7.51002 3.48996 6.93045 4.06954C6.40541 4.59458 6.37312 5.43532 6.85634 5.99908L7.84406 7.15142C8.44849 7.85659 7.47691 9.41384 7.47691 9.41384L4.99834 12.3997C4.83669 12.5213 4.69106 12.6762 4.56985 12.8657C3.90756 13.9011 3.22892 14.7123 1.82797 15.0424C1.4248 15.1374 1.17498 15.5412 1.26998 15.9444C1.36498 16.3476 1.76883 16.5974 2.172 16.5024C4.1391 16.0389 5.09398 14.8301 5.83347 13.674C5.88424 13.5946 5.9537 13.5619 6.02963 13.5602C6.11014 13.5585 6.20374 13.5934 6.27547 13.6853C7.38858 15.1101 9.15741 16.75 12 16.75C14.7602 16.75 16.5384 15.4804 17.7061 13.9195C17.7934 13.8027 17.9221 13.7449 18.0407 13.7427C18.1517 13.7406 18.2373 13.7844 18.2942 13.8705C19.0204 14.9692 19.976 16.066 21.828 16.5024C22.2311 16.5974 22.635 16.3476 22.73 15.9444C22.825 15.5412 22.5752 15.1374 22.172 15.0424Z" fill="#1C274C"/>
<path d="M17 8C18.3807 8 19.5 6.88071 19.5 5.5C19.5 4.11929 18.3807 3 17 3C15.6193 3 14.5 4.11929 14.5 5.5C14.5 6.88071 15.6193 8 17 8Z" fill="#1C274C"/>
</svg>
