<svg width="24" height="24" viewBox="0 0 24 24" fill="none" xmlns="http://www.w3.org/2000/svg">
<path d="M14 4.5C14 5.88071 12.8807 7 11.5 7C10.1193 7 8.99998 5.88071 8.99998 4.5C8.99998 3.11929 10.1193 2 11.5 2C12.8807 2 14 3.11929 14 4.5Z" fill="#1C274C"/>
<path fill-rule="evenodd" clip-rule="evenodd" d="M12.5278 10.7532C12.4897 10.7505 12.442 10.75 12.2698 10.75H11.1787L11.0876 11.6615C10.9135 13.4019 10.853 14.1013 11.0085 14.7631C11.164 15.4248 11.5296 16.024 12.4605 17.5048L15.0353 21.6008C15.2558 21.9515 15.1502 22.4145 14.7995 22.635C14.4488 22.8554 13.9859 22.7498 13.7654 22.3992L11.1905 18.3031C11.166 18.2642 11.1418 18.2256 11.1178 18.1875C10.283 16.8599 9.76783 16.0407 9.54824 15.1061C9.32866 14.1715 9.42511 13.2086 9.58141 11.6482C9.58589 11.6034 9.59043 11.5581 9.59501 11.5123L9.67114 10.7509C9.16997 10.7535 8.79923 10.7632 8.49993 10.7995C8.12271 10.8453 7.94678 10.925 7.82216 11.0249C7.69754 11.1249 7.5816 11.2794 7.45508 11.6377C7.32176 12.0153 7.20694 12.526 7.03606 13.295L6.73212 14.6627C6.64226 15.067 6.24163 15.322 5.83728 15.2321C5.43293 15.1423 5.17798 14.7417 5.26784 14.3373L5.58154 12.9256C5.74004 12.2123 5.87346 11.6118 6.04067 11.1382C6.2181 10.6357 6.45978 10.1948 6.88357 9.85489C7.30736 9.51494 7.7902 9.37465 8.31921 9.31045C8.81773 9.24995 9.4329 9.24997 10.1637 9.25L12.2698 9.25C12.2782 9.25 12.2864 9.25 12.2945 9.25C12.4305 9.24997 12.5362 9.24995 12.6351 9.25704C13.7491 9.33691 14.7041 10.0826 15.0518 11.1439C15.0826 11.2381 15.1083 11.3407 15.1412 11.4727L15.1472 11.4966C15.2033 11.7211 15.22 11.7848 15.2355 11.8293C15.4457 12.4354 16.0806 12.7839 16.7048 12.6359C16.7507 12.6251 16.8134 12.6049 17.033 12.5318L17.7628 12.2885C18.1558 12.1575 18.5805 12.3699 18.7115 12.7628C18.8425 13.1558 18.6301 13.5805 18.2371 13.7115L17.5073 13.9548C17.4963 13.9584 17.4855 13.9621 17.4749 13.9656C17.3029 14.023 17.1708 14.067 17.0509 14.0955C15.6777 14.4211 14.2809 13.6543 13.8183 12.321C13.7779 12.2045 13.7442 12.0695 13.7003 11.8936C13.6976 11.8827 13.6948 11.8716 13.692 11.8604C13.6502 11.6934 13.6382 11.6472 13.6263 11.6109C13.4683 11.1285 13.0342 10.7895 12.5278 10.7532ZM9.416 16.876C9.76065 17.1057 9.85378 17.5714 9.62402 17.916L6.62402 22.416C6.39425 22.7607 5.9286 22.8538 5.58395 22.624C5.23931 22.3943 5.14618 21.9286 5.37594 21.584L8.37594 17.084C8.6057 16.7393 9.07136 16.6462 9.416 16.876Z" fill="#1C274C"/>
</svg>
