<svg width="24" height="24" viewBox="0 0 24 24" fill="none" xmlns="http://www.w3.org/2000/svg">
<path fill-rule="evenodd" clip-rule="evenodd" d="M12 1.25C12.4142 1.25 12.75 1.58579 12.75 2V3C12.75 3.41421 12.4142 3.75 12 3.75C11.5858 3.75 11.25 3.41421 11.25 3V2C11.25 1.58579 11.5858 1.25 12 1.25ZM4.39908 4.39861C4.69198 4.10572 5.16685 4.10572 5.45974 4.39861L5.85258 4.79145C6.14547 5.08434 6.14547 5.55921 5.85258 5.85211C5.55969 6.145 5.08482 6.145 4.79192 5.85211L4.39908 5.45927C4.10619 5.16638 4.10619 4.6915 4.39908 4.39861ZM19.6006 4.39887C19.8935 4.69176 19.8935 5.16664 19.6006 5.45953L19.2078 5.85237C18.9149 6.14526 18.44 6.14526 18.1471 5.85237C17.8542 5.55947 17.8542 5.0846 18.1471 4.79171L18.54 4.39887C18.8329 4.10598 19.3077 4.10598 19.6006 4.39887ZM1.24999 12C1.24999 11.5858 1.58577 11.25 1.99999 11.25H2.99999C3.4142 11.25 3.74999 11.5858 3.74999 12C3.74999 12.4142 3.4142 12.75 2.99999 12.75H1.99999C1.58577 12.75 1.24999 12.4142 1.24999 12ZM20.25 12C20.25 11.5858 20.5858 11.25 21 11.25H22C22.4142 11.25 22.75 11.5858 22.75 12C22.75 12.4142 22.4142 12.75 22 12.75H21C20.5858 12.75 20.25 12.4142 20.25 12ZM4.56985 18.8657C5.2567 17.7919 6.72731 17.8271 7.45752 18.7618C8.44752 20.0291 9.82947 21.25 12 21.25C14.2086 21.25 15.5697 20.2712 16.505 19.0209C17.2249 18.0585 18.7907 17.9013 19.5456 19.0435C20.1706 19.9891 20.8486 20.7306 22.172 21.0424C22.5752 21.1374 22.825 21.5412 22.73 21.9444C22.635 22.3476 22.2311 22.5974 21.828 22.5024C19.976 22.066 19.0204 20.9692 18.2942 19.8705C18.2373 19.7844 18.1517 19.7406 18.0407 19.7427C17.9221 19.7449 17.7934 19.8027 17.7061 19.9195C16.5384 21.4804 14.7602 22.75 12 22.75C9.15741 22.75 7.38858 21.1101 6.27547 19.6853C6.20374 19.5934 6.11014 19.5585 6.02963 19.5602C5.9537 19.5619 5.88424 19.5946 5.83347 19.674C5.09398 20.8301 4.1391 22.0389 2.172 22.5024C1.76883 22.5974 1.36498 22.3476 1.26998 21.9444C1.17498 21.5412 1.4248 21.1374 1.82797 21.0424C3.22892 20.7123 3.90756 19.9011 4.56985 18.8657Z" fill="#1C274C"/>
<path d="M22.172 16.0424C20.8486 15.7306 20.1706 14.9891 19.5456 14.0435C19.1368 13.425 18.4903 13.1875 17.869 13.2526C17.9548 12.8486 18 12.4296 18 12C18 8.68629 15.3137 6 12 6C8.68628 6 5.99999 8.68629 5.99999 12C5.99999 12.3623 6.03209 12.7171 6.09362 13.0617C5.5168 13.0396 4.93349 13.2972 4.56985 13.8657C3.90756 14.9011 3.22892 15.7123 1.82797 16.0424C1.4248 16.1374 1.17498 16.5412 1.26998 16.9444C1.36498 17.3476 1.76883 17.5974 2.172 17.5024C4.1391 17.0389 5.09398 15.8301 5.83347 14.674C5.88424 14.5946 5.9537 14.5619 6.02963 14.5602C6.11014 14.5585 6.20374 14.5934 6.27547 14.6853C7.38858 16.1101 9.15741 17.75 12 17.75C14.7602 17.75 16.5384 16.4804 17.7061 14.9195C17.7934 14.8027 17.9221 14.7449 18.0407 14.7427C18.1517 14.7406 18.2373 14.7844 18.2942 14.8705C19.0204 15.9692 19.976 17.066 21.828 17.5024C22.2311 17.5974 22.635 17.3476 22.73 16.9444C22.825 16.5412 22.5752 16.1374 22.172 16.0424Z" fill="#1C274C"/>
</svg>
